HIERARCHY
ROOT hip
{
	OFFSET 0.000000 0.000000 0.000000 
	CHANNELS 6 Xposition Yposition Zposition Xrotation Zrotation Yrotation
	JOINT abdomen
	{
		OFFSET 0.000000 3.402643 0.000000 
		CHANNELS 3 Xrotation Zrotation Yrotation
		JOINT chest
		{
			OFFSET 0.000000 8.438565 -0.680529 
			CHANNELS 3 Xrotation Zrotation Yrotation
			JOINT neck
			{
				OFFSET 0.000000 10.207942 -0.272212 
				CHANNELS 3 Xrotation Zrotation Yrotation
				JOINT head
				{
					OFFSET 0.000000 3.130431 0.000000 
					CHANNELS 3 Xrotation Zrotation Yrotation
					End Site
					{
						OFFSET 0.000000 3.130435 0.000000 
					}
				}
			}
			JOINT lCollar
			{
				OFFSET 3.470700 6.669187 -0.816635 
				CHANNELS 3 Yrotation Zrotation Xrotation
				JOINT lShldr
				{
					OFFSET 3.198488 0.000000 0.000000 
					CHANNELS 3 Zrotation Yrotation Xrotation
					JOINT lForeArm
					{
						OFFSET 10.139888 0.000000 0.000000 
						CHANNELS 3 Yrotation Zrotation Xrotation
						JOINT lHand
						{
							OFFSET 8.370511 0.000000 0.000000 
							CHANNELS 3 Zrotation Yrotation Xrotation
							End Site
							{
								OFFSET 4.083176 0.000000 0.000000 
							}
						}
					}
				}
			}
			JOINT rCollar
			{
				OFFSET -3.470700 6.669187 -0.816635 
				CHANNELS 3 Yrotation Zrotation Xrotation
				JOINT rShldr
				{
					OFFSET -3.198488 0.000000 0.000000 
					CHANNELS 3 Zrotation Yrotation Xrotation
					JOINT rForeArm
					{
						OFFSET -10.139888 0.000000 0.000000 
						CHANNELS 3 Yrotation Zrotation Xrotation
						JOINT rHand
						{
							OFFSET -8.370511 0.000000 0.000000 
							CHANNELS 3 Zrotation Yrotation Xrotation
							End Site
							{
								OFFSET -4.083176 0.000000 0.000000 
							}
						}
					}
				}
			}
		}
	}
	JOINT lThigh
	{
		OFFSET 5.308129 -1.633274 1.361059 
		CHANNELS 3 Xrotation Zrotation Yrotation
		JOINT lShin
		{
			OFFSET -2.041588 -20.007561 0.000000 
			CHANNELS 3 Xrotation Zrotation Yrotation
			JOINT lFoot
			{
				OFFSET 0.000000 -19.190928 -1.224953 
				CHANNELS 3 Xrotation Yrotation Zrotation
				End Site
				{
					OFFSET 0.000000 -2.449906 4.627600 
				}
			}
		}
	}
	JOINT rThigh
	{
		OFFSET -5.308129 -1.633274 1.361059 
		CHANNELS 3 Xrotation Zrotation Yrotation
		JOINT rShin
		{
			OFFSET 2.041588 -20.007561 0.000000 
			CHANNELS 3 Xrotation Zrotation Yrotation
			JOINT rFoot
			{
				OFFSET 0.000000 -19.190928 -1.224953 
				CHANNELS 3 Xrotation Yrotation Zrotation
				End Site
				{
					OFFSET 0.000000 -2.449906 4.627600 
				}
			}
		}
	}
}
MOTION
Frames: 6
Frame Time: 0.011111
33.308773 49.793713 -96.224731 -2.458126 -3.439577 -9.686173 30.331360 5.000507 7.400787 -19.521288 -1.764196 1.392103 -15.630212 1.827241 3.681981 4.405264 -8.896769 7.534802 0.736540 -9.814158 1.078738 -74.167961 -19.629965 -10.529233 -43.483654 5.914278 5.638782 8.524705 12.647240 -32.835339 -3.299667 11.850037 1.750699 55.760571 48.419937 40.613461 66.260696 -9.432082 15.282910 -8.534408 -12.637552 61.312363 -23.849115 6.227731 0.628573 22.312065 -5.699381 -3.835347 -20.681932 8.249456 0.170450 22.507524 2.685754 3.009507 11.454885 5.974456 2.318057 -20.109045 5.754008 4.845047 
33.284153 49.727219 -95.638115 -2.668323 -3.308738 -9.866722 30.334263 4.716085 7.375068 -18.837397 -1.595188 1.410302 -16.184921 1.896315 3.743263 4.243914 -8.914457 7.707589 0.736540 -9.814158 1.078738 -74.378014 -20.305361 -10.761489 -43.412498 5.895086 5.612696 8.524705 12.647240 -33.089245 -3.299667 11.850037 1.750699 55.747135 49.123802 40.348747 66.092270 -9.441236 15.204529 -8.534408 -12.637552 61.029156 -23.448559 5.876449 0.827488 22.335556 -5.682869 -3.854510 -21.012339 8.375061 0.262652 23.454123 2.392848 3.115941 11.162286 5.964987 2.272356 -19.823429 5.696337 4.845043 
33.258579 49.698128 -95.047028 -2.705567 -3.164422 -9.979127 30.245485 4.439291 7.450931 -18.710411 -1.569187 1.455702 -16.263334 1.926741 3.722753 3.796558 -8.631321 7.720963 0.736540 -9.814158 1.078738 -74.356285 -20.559114 -11.064430 -43.166710 5.813373 5.522817 8.524705 12.647240 -33.850964 -3.299667 11.850037 1.750699 55.786007 49.279255 40.132217 65.783279 -9.448823 15.066222 -8.534408 -12.637552 60.755722 -23.248365 5.536170 1.095562 22.595047 -5.693614 -3.879281 -20.923817 8.393519 0.255518 23.880381 2.119506 2.974200 11.532067 5.951880 2.333015 -19.764475 5.973427 4.926969 
33.231087 49.681187 -94.433571 -2.617631 -2.899112 -10.073586 29.946533 4.087517 7.411162 -18.788605 -1.635646 1.496740 -16.061319 2.152171 3.641596 3.258970 -8.403203 7.690520 0.736540 -9.814158 1.078738 -74.209229 -20.558033 -11.241692 -42.972904 5.752147 5.447124 8.524705 12.647240 -34.349010 -3.299667 11.850037 1.750699 56.000248 49.108181 40.127422 65.484383 -9.452200 14.918248 -8.534408 -12.637552 60.609234 -23.120853 5.145411 1.671908 23.126562 -5.653657 -3.959223 -20.345022 8.188609 0.062440 24.282698 1.738259 2.906872 11.689899 5.964782 2.358933 -19.406771 6.042944 4.941590 
33.195923 49.614693 -93.809227 -2.472024 -2.919662 -10.245136 29.559593 4.031463 7.414400 -18.759325 -1.655996 1.515378 -15.858291 2.368695 3.635860 2.786033 -8.267136 7.771396 0.736540 -9.814158 1.078738 -74.179901 -20.548048 -11.173628 -42.963165 5.753326 5.445849 8.524705 12.647240 -34.095104 -3.299667 11.850037 1.750699 56.265133 48.935905 40.367897 65.251465 -9.459223 14.815375 -8.534408 -12.637552 60.531109 -23.079948 5.047234 1.946590 24.017576 -5.615271 -4.080414 -19.921928 7.908352 -0.104448 24.567638 1.650955 2.839464 12.186441 5.951767 2.431026 -18.984232 6.226716 4.993866 
33.162357 49.507599 -93.182655 -2.250586 -3.156750 -10.343373 29.032764 4.256833 7.530807 -18.456514 -1.586014 1.526776 -15.779410 2.276568 3.653905 2.391899 -7.911536 7.803112 0.736540 -9.814158 1.078738 -74.296234 -20.705160 -11.166130 -42.921978 5.737188 5.430639 8.524705 12.647240 -34.056046 -3.299667 11.850037 1.750699 56.343624 48.885216 40.428303 64.975822 -9.465096 14.689536 -8.534408 -12.637552 60.550644 -23.179380 5.145349 1.809461 25.096382 -5.576859 -4.217865 -19.608706 7.697466 -0.220980 24.852442 1.796997 2.877698 12.783525 5.945189 2.514454 -18.906454 6.438251 5.056605 
